999
DXF created by Inkscape
  0
SECTION
  2
HEADER
  9
$ACADVER
  1
AC1014
  9
$HANDSEED
  5
FFFF
  9
$MEASUREMENT
 70
     1
  0
ENDSEC
  0
SECTION
  2
TABLES
  0
TABLE
  2
VPORT
  5
8
330
0
100
AcDbSymbolTable
 70
     4
  0
VPORT
  5
2E
330
8
100
AcDbSymbolTableRecord
100
AcDbViewportTableRecord
  2
*ACTIVE
 70
     0
 10
0.0
 20
0.0
 11
1.0
 21
1.0
 12
210.0
 22
148.5
 13
0.0
 23
0.0
 14
10.0
 24
10.0
 15
10.0
 25
10.0
 16
0.0
 26
0.0
 36
1.0
 17
0.0
 27
0.0
 37
0.0
 40
341.0
 41
1.24
 42
50.0
 43
0.0
 44
0.0
 50
0.0
 51
0.0
 71
     0
 72
   100
 73
     1
 74
     3
 75
     0
 76
     0
 77
     0
 78
     0
  0
ENDTAB
  0
TABLE
  2
LTYPE
  5
5
330
0
100
AcDbSymbolTable
 70
     1
  0
LTYPE
  5
14
330
5
100
AcDbSymbolTableRecord
100
AcDbLinetypeTableRecord
  2
BYBLOCK
 70
     0
  3

 72
    65
 73
     0
 40
0.0
  0
LTYPE
  5
15
330
5
100
AcDbSymbolTableRecord
100
AcDbLinetypeTableRecord
  2
BYLAYER
 70
     0
  3

 72
    65
 73
     0
 40
0.0
  0
LTYPE
  5
16
330
5
100
AcDbSymbolTableRecord
100
AcDbLinetypeTableRecord
  2
CONTINUOUS
 70
     0
  3
Solid line
 72
    65
 73
     0
 40
0.0
  0
ENDTAB
  0
TABLE
  2
LAYER
  5
2
330
0
100
AcDbSymbolTable
 70
1
  0
LAYER
  5
10
330
2
100
AcDbSymbolTableRecord
100
AcDbLayerTableRecord
  2
0
 70
     0
 62
     7
  6
CONTINUOUS
  0
ENDTAB
  0
TABLE
  2
STYLE
  5
3
330
0
100
AcDbSymbolTable
 70
     1
  0
STYLE
  5
11
330
3
100
AcDbSymbolTableRecord
100
AcDbTextStyleTableRecord
  2
STANDARD
 70
     0
 40
0.0
 41
1.0
 50
0.0
 71
     0
 42
2.5
  3
txt
  4

  0
ENDTAB
  0
TABLE
  2
VIEW
  5
6
330
0
100
AcDbSymbolTable
 70
     0
  0
ENDTAB
  0
TABLE
  2
UCS
  5
7
330
0
100
AcDbSymbolTable
 70
     0
  0
ENDTAB
  0
TABLE
  2
APPID
  5
9
330
0
100
AcDbSymbolTable
 70
     2
  0
APPID
  5
12
330
9
100
AcDbSymbolTableRecord
100
AcDbRegAppTableRecord
  2
ACAD
 70
     0
  0
ENDTAB
  0
TABLE
  2
DIMSTYLE
  5
A
330
0
100
AcDbSymbolTable
 70
     1
  0
DIMSTYLE
105
27
330
A
100
AcDbSymbolTableRecord
100
AcDbDimStyleTableRecord
  2
ISO-25
 70
     0
  3

  4

  5

  6

  7

 40
1.0
 41
2.5
 42
0.625
 43
3.75
 44
1.25
 45
0.0
 46
0.0
 47
0.0
 48
0.0
140
2.5
141
2.5
142
0.0
143
0.03937007874016
144
1.0
145
0.0
146
1.0
147
0.625
 71
     0
 72
     0
 73
     0
 74
     0
 75
     0
 76
     0
 77
     1
 78
     8
170
     0
171
     3
172
     1
173
     0
174
     0
175
     0
176
     0
177
     0
178
     0
270
     2
271
     2
272
     2
273
     2
274
     3
340
11
275
     0
280
     0
281
     0
282
     0
283
     0
284
     8
285
     0
286
     0
287
     3
288
     0
  0
ENDTAB
  0
TABLE
  2
BLOCK_RECORD
  5
1
330
0
100
AcDbSymbolTable
 70
     1
  0
BLOCK_RECORD
  5
1F
330
1
100
AcDbSymbolTableRecord
100
AcDbBlockTableRecord
  2
*MODEL_SPACE
  0
BLOCK_RECORD
  5
1B
330
1
100
AcDbSymbolTableRecord
100
AcDbBlockTableRecord
  2
*PAPER_SPACE
  0
ENDTAB
  0
ENDSEC
  0
SECTION
  2
BLOCKS
  0
BLOCK
  5
20
330
1F
100
AcDbEntity
  8
0
100
AcDbBlockBegin
  2
*MODEL_SPACE
 70
     0
 10
0.0
 20
0.0
 30
0.0
  3
*MODEL_SPACE
  1

  0
ENDBLK
  5
21
330
1F
100
AcDbEntity
  8
0
100
AcDbBlockEnd
  0
BLOCK
  5
1C
330
1B
100
AcDbEntity
 67
     1
  8
0
100
AcDbBlockBegin
  2
*PAPER_SPACE
  1

  0
ENDBLK
  5
1D
330
1B
100
AcDbEntity
 67
     1
  8
0
100
AcDbBlockEnd
  0
ENDSEC
  0
SECTION
  2
ENTITIES
  0
LWPOLYLINE
  5
100
100
AcDbEntity
  8
0
 62
7
100
AcDbPolyline
 90
90
 70
0
 10
3.421675
 20
-229.480274
 30
0.0
 10
4.846681
 20
-227.655662
 30
0.0
 10
6.531789
 20
-226.165653
 30
0.0
 10
8.429314
 20
-224.978872
 30
0.0
 10
10.491565
 20
-224.063958
 30
0.0
 10
12.670865
 20
-223.389523
 30
0.0
 10
14.919518
 20
-222.924201
 30
0.0
 10
17.189847
 20
-222.636613
 30
0.0
 10
19.434161
 20
-222.495389
 30
0.0
 10
23.523890
 20
-222.530456
 30
0.0
 10
27.609745
 20
-222.818119
 30
0.0
 10
31.672699
 20
-223.359455
 30
0.0
 10
35.693725
 20
-224.155533
 30
0.0
 10
39.653800
 20
-225.207426
 30
0.0
 10
43.533887
 20
-226.516207
 30
0.0
 10
47.314939
 20
-228.082949
 30
0.0
 10
50.977969
 20
-229.908715
 30
0.0
 10
53.065175
 20
-231.179537
 30
0.0
 10
55.032662
 20
-232.661700
 30
0.0
 10
56.838142
 20
-234.341120
 30
0.0
 10
58.439349
 20
-236.203702
 30
0.0
 10
59.793940
 20
-238.235391
 30
0.0
 10
60.859690
 20
-240.422077
 30
0.0
 10
61.594244
 20
-242.749705
 30
0.0
 10
61.955319
 20
-245.204192
 30
0.0
 10
62.106559
 20
-247.435553
 30
0.0
 10
61.958415
 20
-249.654864
 30
0.0
 10
61.525438
 20
-251.832322
 30
0.0
 10
60.822377
 20
-253.938095
 30
0.0
 10
59.863801
 20
-255.942437
 30
0.0
 10
58.664396
 20
-257.815574
 30
0.0
 10
57.238801
 20
-259.527675
 30
0.0
 10
55.601670
 20
-261.048966
 30
0.0
 10
53.303672
 20
-262.810710
 30
0.0
 10
50.880323
 20
-264.379978
 30
0.0
 10
48.350376
 20
-265.773225
 30
0.0
 10
45.732593
 20
-267.006959
 30
0.0
 10
43.045685
 20
-268.097720
 30
0.0
 10
40.308383
 20
-269.061904
 30
0.0
 10
37.539453
 20
-269.916077
 30
0.0
 10
34.757645
 20
-270.676723
 30
0.0
 10
32.171736
 20
-271.248477
 30
0.0
 10
29.559072
 20
-271.724473
 30
0.0
 10
26.926862
 20
-272.091700
 30
0.0
 10
24.282304
 20
-272.337121
 30
0.0
 10
21.632616
 20
-272.447695
 30
0.0
 10
18.985002
 20
-272.410386
 30
0.0
 10
16.346667
 20
-272.212209
 30
0.0
 10
13.724827
 20
-271.840099
 30
0.0
 10
12.521702
 20
-271.535779
 30
0.0
 10
11.325673
 20
-271.175692
 30
0.0
 10
10.152161
 20
-270.747702
 30
0.0
 10
9.016613
 20
-270.239532
 30
0.0
 10
7.934449
 20
-269.639076
 30
0.0
 10
6.921115
 20
-268.934029
 30
0.0
 10
5.992035
 20
-268.112226
 30
0.0
 10
5.162646
 20
-267.161447
 30
0.0
 10
4.070393
 20
-265.618708
 30
0.0
 10
3.157904
 20
-263.982129
 30
0.0
 10
2.406152
 20
-262.268053
 30
0.0
 10
1.796101
 20
-260.492819
 30
0.0
 10
1.308719
 20
-258.672711
 30
0.0
 10
0.924974
 20
-256.824043
 30
0.0
 10
0.625833
 20
-254.963182
 30
0.0
 10
0.392263
 20
-253.106414
 30
0.0
 10
0.331639
 20
-252.323021
 30
0.0
 10
0.252472
 20
-251.522301
 30
0.0
 10
0.167237
 20
-250.716359
 30
0.0
 10
0.088423
 20
-249.917444
 30
0.0
 10
0.028516
 20
-249.137664
 30
0.0
 10
0.000000
 20
-248.389239
 30
0.0
 10
0.015353
 20
-247.684304
 30
0.0
 10
0.087066
 20
-247.035080
 30
0.0
 10
0.050176
 20
-245.790226
 30
0.0
 10
0.041252
 20
-244.543876
 30
0.0
 10
0.058235
 20
-243.297047
 30
0.0
 10
0.099004
 20
-242.050782
 30
0.0
 10
0.161469
 20
-240.806041
 30
0.0
 10
0.243536
 20
-239.563868
 30
0.0
 10
0.343114
 20
-238.325279
 30
0.0
 10
0.458105
 20
-237.091234
 30
0.0
 10
0.632493
 20
-236.075827
 30
0.0
 10
0.873490
 20
-235.076817
 30
0.0
 10
1.175801
 20
-234.095163
 30
0.0
 10
1.534131
 20
-233.131769
 30
0.0
 10
1.943177
 20
-232.187654
 30
0.0
 10
2.397645
 20
-231.263726
 30
0.0
 10
2.892240
 20
-230.360954
 30
0.0
 10
3.421664
 20
-229.480277
 30
0.0
 10
3.421675
 20
-229.480274
 30
0.0
  0
LWPOLYLINE
  5
101
100
AcDbEntity
  8
0
 62
7
100
AcDbPolyline
 90
98
 70
0
 10
5.734723
 20
-235.454599
 30
0.0
 10
5.395633
 20
-236.697393
 30
0.0
 10
5.146916
 20
-237.954411
 30
0.0
 10
4.971062
 20
-239.222887
 30
0.0
 10
4.850563
 20
-240.499914
 30
0.0
 10
4.767910
 20
-241.782671
 30
0.0
 10
4.705596
 20
-243.068362
 30
0.0
 10
4.646114
 20
-244.354110
 30
0.0
 10
4.571954
 20
-245.637092
 30
0.0
 10
4.576972
 20
-246.740073
 30
0.0
 10
4.602984
 20
-247.843280
 30
0.0
 10
4.649952
 20
-248.946684
 30
0.0
 10
4.717668
 20
-250.050117
 30
0.0
 10
4.805929
 20
-251.153493
 30
0.0
 10
4.914540
 20
-252.256727
 30
0.0
 10
5.043305
 20
-253.359680
 30
0.0
 10
5.192026
 20
-254.462266
 30
0.0
 10
5.291934
 20
-255.207699
 30
0.0
 10
5.406728
 20
-255.957592
 30
0.0
 10
5.538713
 20
-256.709912
 30
0.0
 10
5.690195
 20
-257.462627
 30
0.0
 10
5.863481
 20
-258.213789
 30
0.0
 10
6.060875
 20
-258.961340
 30
0.0
 10
6.284679
 20
-259.703302
 30
0.0
 10
6.537204
 20
-260.437616
 30
0.0
 10
6.872735
 20
-261.176925
 30
0.0
 10
7.232857
 20
-261.902377
 30
0.0
 10
7.627935
 20
-262.602994
 30
0.0
 10
8.068336
 20
-263.267740
 30
0.0
 10
8.564428
 20
-263.885609
 30
0.0
 10
9.126580
 20
-264.445651
 30
0.0
 10
9.765155
 20
-264.936831
 30
0.0
 10
10.490518
 20
-265.348141
 30
0.0
 10
11.461645
 20
-265.894495
 30
0.0
 10
12.485351
 20
-266.263557
 30
0.0
 10
13.549905
 20
-266.496701
 30
0.0
 10
14.643578
 20
-266.635216
 30
0.0
 10
15.754638
 20
-266.720447
 30
0.0
 10
16.871353
 20
-266.793712
 30
0.0
 10
17.981995
 20
-266.896356
 30
0.0
 10
19.074831
 20
-267.069697
 30
0.0
 10
22.650341
 20
-267.046555
 30
0.0
 10
26.217181
 20
-266.783524
 30
0.0
 10
29.761318
 20
-266.287941
 30
0.0
 10
33.268728
 20
-265.567146
 30
0.0
 10
36.725383
 20
-264.628447
 30
0.0
 10
40.117243
 20
-263.479181
 30
0.0
 10
43.430306
 20
-262.126631
 30
0.0
 10
46.650540
 20
-260.578134
 30
0.0
 10
48.335929
 20
-259.578362
 30
0.0
 10
49.995029
 20
-258.463584
 30
0.0
 10
51.578722
 20
-257.226830
 30
0.0
 10
53.037952
 20
-255.861100
 30
0.0
 10
54.323553
 20
-254.359368
 30
0.0
 10
55.386475
 20
-252.714633
 30
0.0
 10
56.177569
 20
-250.919869
 30
0.0
 10
56.647746
 20
-248.968105
 30
0.0
 10
56.809629
 20
-247.276070
 30
0.0
 10
56.735670
 20
-245.592501
 30
0.0
 10
56.436929
 20
-243.940937
 30
0.0
 10
55.924470
 20
-242.344885
 30
0.0
 10
55.209392
 20
-240.827828
 30
0.0
 10
54.302688
 20
-239.413330
 30
0.0
 10
53.215467
 20
-238.124901
 30
0.0
 10
51.958745
 20
-236.986050
 30
0.0
 10
49.069391
 20
-235.014445
 30
0.0
 10
46.022415
 20
-233.327011
 30
0.0
 10
42.843608
 20
-231.902135
 30
0.0
 10
39.558719
 20
-230.718270
 30
0.0
 10
36.193524
 20
-229.753818
 30
0.0
 10
32.773832
 20
-228.987212
 30
0.0
 10
29.325387
 20
-228.396873
 30
0.0
 10
25.873980
 20
-227.961230
 30
0.0
 10
24.830015
 20
-227.922686
 30
0.0
 10
23.786842
 20
-227.853895
 30
0.0
 10
22.744787
 20
-227.772502
 30
0.0
 10
21.704189
 20
-227.696158
 30
0.0
 10
20.665372
 20
-227.642499
 30
0.0
 10
19.628668
 20
-227.629178
 30
0.0
 10
18.594410
 20
-227.673800
 30
0.0
 10
17.562929
 20
-227.794047
 30
0.0
 10
16.483164
 20
-227.898452
 30
0.0
 10
15.415575
 20
-228.073904
 30
0.0
 10
14.363643
 20
-228.317360
 30
0.0
 10
13.330856
 20
-228.625739
 30
0.0
 10
12.320701
 20
-228.995972
 30
0.0
 10
11.336663
 20
-229.424992
 30
0.0
 10
10.382226
 20
-229.909745
 30
0.0
 10
9.460881
 20
-230.447153
 30
0.0
 10
8.929112
 20
-231.021944
 30
0.0
 10
8.397437
 20
-231.600127
 30
0.0
 10
7.875237
 20
-232.187318
 30
0.0
 10
7.371900
 20
-232.789123
 30
0.0
 10
6.896805
 20
-233.411141
 30
0.0
 10
6.459338
 20
-234.058982
 30
0.0
 10
6.068894
 20
-234.738291
 30
0.0
 10
5.734839
 20
-235.454656
 30
0.0
 10
5.734723
 20
-235.454599
 30
0.0
  0
ENDSEC
  0
SECTION
  2
OBJECTS
  0
DICTIONARY
  5
C
330
0
100
AcDbDictionary
  3
ACAD_GROUP
350
D
  3
ACAD_MLINESTYLE
350
17
  0
DICTIONARY
  5
D
330
C
100
AcDbDictionary
  0
DICTIONARY
  5
1A
330
C
100
AcDbDictionary
  0
DICTIONARY
  5
17
330
C
100
AcDbDictionary
  3
STANDARD
350
18
  0
DICTIONARY
  5
19
330
C
100
AcDbDictionary
  0
ENDSEC
  0
EOF
