<svg id="Layer_1" data-name="Layer 1" xmlns="http://www.w3.org/2000/svg" width="298.29" height="274.45" viewBox="0 0 298.29 274.45">
  <title>fid-spin</title>
  <path d="M348.17,365.76c-19.92-.84-36.14-8.72-47.89-25.2-2.74-3.84-5.29-7.94-8.62-11.23-14.06-13.86-30.73-17.45-49.43-11.4a39,39,0,0,0-17,10.79,155.26,155.26,0,0,0-9.74,12.68,58.84,58.84,0,0,1-19,16.84,58.57,58.57,0,0,1-57.8-.41,58.1,58.1,0,0,1-12.94-9.92c-17.95-18.64-22.09-46.49-9.51-69.21C126.67,259.8,143,249.54,164.64,248c7.86-.55,15.42-1.83,22.42-5.63a45.68,45.68,0,0,0,18.62-18c8.5-15.23,8.61-30.68.68-46.18-8.71-17-9.48-34.3-2-51.88a53.14,53.14,0,0,1,12.12-17.58c17.15-16.54,37.21-21.18,59.92-14.54A52.47,52.47,0,0,1,295.92,105q19.93,17.14,21,43.46c0.44,10.85-2.45,20.86-7.34,30.49-7.45,14.66-7.57,29.62.29,44.06,8.36,15.38,21.67,23.81,39.25,24.7,13.31,0.67,25.37,4.5,35.79,12.84,13.3,10.64,20.69,24.6,22.1,41.55a58.77,58.77,0,0,1-.58,13.52c-0.63,4.2-2.18,8.26-3.31,12.38-1.21,4.4-3.68,8.17-6.14,11.9a56.62,56.62,0,0,1-25.28,20.94A57.81,57.81,0,0,1,348.17,365.76Z" transform="translate(-108.93 -91.31)"/>
</svg>
