999
Inkscape export via OpenSCAD DXF Export
  0
SECTION
  2
HEADER
  9
$ACADVER
  1
AC1014
  9
$HANDSEED
  5
FFFF
  9
$MEASUREMENT
 70
     1
  0
ENDSEC
  0
SECTION
  2
TABLES
  0
TABLE
  2
VPORT
  5
8
330
0
100
AcDbSymbolTable
 70
     4
  0
VPORT
  5
2E
330
8
100
AcDbSymbolTableRecord
100
AcDbViewportTableRecord
  2
*ACTIVE
 70
     0
 10
0.0
 20
0.0
 11
1.0
 21
1.0
 12
210.0
 22
148.5
 13
0.0
 23
0.0
 14
10.0
 24
10.0
 15
10.0
 25
10.0
 16
0.0
 26
0.0
 36
1.0
 17
0.0
 27
0.0
 37
0.0
 40
341.0
 41
1.24
 42
50.0
 43
0.0
 44
0.0
 50
0.0
 51
0.0
 71
     0
 72
   100
 73
     1
 74
     3
 75
     0
 76
     0
 77
     0
 78
     0
  0
ENDTAB
  0
TABLE
  2
LTYPE
  5
5
330
0
100
AcDbSymbolTable
 70
     1
  0
LTYPE
  5
14
330
5
100
AcDbSymbolTableRecord
100
AcDbLinetypeTableRecord
  2
BYBLOCK
 70
     0
  3

 72
    65
 73
     0
 40
0.0
  0
LTYPE
  5
15
330
5
100
AcDbSymbolTableRecord
100
AcDbLinetypeTableRecord
  2
BYLAYER
 70
     0
  3

 72
    65
 73
     0
 40
0.0
  0
LTYPE
  5
16
330
5
100
AcDbSymbolTableRecord
100
AcDbLinetypeTableRecord
  2
CONTINUOUS
 70
     0
  3
Solid line
 72
    65
 73
     0
 40
0.0
  0
ENDTAB
  0
TABLE
0
TABLE
2
LAYER
5
2
330
0
100
AcDbSymbolTable
70
1
0
LAYER
5
10
330
2
100
AcDbSymbolTableRecord
100
AcDbLayerTableRecord
2
Layer_1
70
0
62
7
6
CONTINUOUS
0
ENDTAB
0
ENDSEC
  0
ENDTAB
  0
TABLE
  2
STYLE
  5
3
330
0
100
AcDbSymbolTable
 70
     1
  0
STYLE
  5
11
330
3
100
AcDbSymbolTableRecord
100
AcDbTextStyleTableRecord
  2
STANDARD
 70
     0
 40
0.0
 41
1.0
 50
0.0
 71
     0
 42
2.5
  3
txt
  4

  0
ENDTAB
  0
TABLE
  2
VIEW
  5
6
330
0
100
AcDbSymbolTable
 70
     0
  0
ENDTAB
  0
TABLE
  2
UCS
  5
7
330
0
100
AcDbSymbolTable
 70
     0
  0
ENDTAB
  0
TABLE
  2
APPID
  5
9
330
0
100
AcDbSymbolTable
 70
     2
  0
APPID
  5
12
330
9
100
AcDbSymbolTableRecord
100
AcDbRegAppTableRecord
  2
ACAD
 70
     0
  0
ENDTAB
  0
TABLE
  2
DIMSTYLE
  5
A
330
0
100
AcDbSymbolTable
 70
     1
  0
DIMSTYLE
105
27
330
A
100
AcDbSymbolTableRecord
100
AcDbDimStyleTableRecord
  2
ISO-25
 70
     0
  3

  4

  5

  6

  7

 40
1.0
 41
2.5
 42
0.625
 43
3.75
 44
1.25
 45
0.0
 46
0.0
 47
0.0
 48
0.0
140
2.5
141
2.5
142
0.0
143
0.03937007874016
144
1.0
145
0.0
146
1.0
147
0.625
 71
     0
 72
     0
 73
     0
 74
     0
 75
     0
 76
     0
 77
     1
 78
     8
170
     0
171
     3
172
     1
173
     0
174
     0
175
     0
176
     0
177
     0
178
     0
270
     2
271
     2
272
     2
273
     2
274
     3
340
11
275
     0
280
     0
281
     0
282
     0
283
     0
284
     8
285
     0
286
     0
287
     3
288
     0
  0
ENDTAB
  0
TABLE
  2
BLOCK_RECORD
  5
1
330
0
100
AcDbSymbolTable
 70
     1
  0
BLOCK_RECORD
  5
1F
330
1
100
AcDbSymbolTableRecord
100
AcDbBlockTableRecord
  2
*MODEL_SPACE
  0
BLOCK_RECORD
  5
1B
330
1
100
AcDbSymbolTableRecord
100
AcDbBlockTableRecord
  2
*PAPER_SPACE
  0
ENDTAB
  0
ENDSEC
  0
SECTION
  2
BLOCKS
  0
BLOCK
  5
20
330
1F
100
AcDbEntity
  8
0
100
AcDbBlockBegin
  2
*MODEL_SPACE
 70
     0
 10
0.0
 20
0.0
 30
0.0
  3
*MODEL_SPACE
  1

  0
ENDBLK
  5
21
330
1F
100
AcDbEntity
  8
0
100
AcDbBlockEnd
  0
BLOCK
  5
1C
330
1B
100
AcDbEntity
 67
     1
  8
0
100
AcDbBlockBegin
  2
*PAPER_SPACE
  1

  0
ENDBLK
  5
1D
330
1B
100
AcDbEntity
 67
     1
  8
0
100
AcDbBlockEnd
  0
ENDSEC
  0
SECTION
  2
ENTITIES
0
DIMENSION
5
83
100
AcDbEntity
62
256
370
-1
6
ByLayer
1
total_width
3
Standard
70
0
71
5
72
1
41
1.0
100
AcDbAlignedDimension
13
-67.517211
23
0.000000
33
0.0
14
139.292753
24
0.000000
34
0.0
50
0.000000
100
AcDbRotatedDimension
0
DIMENSION
5
83
100
AcDbEntity
62
256
370
-1
6
ByLayer
1
total_minx
3
Standard
70
0
71
5
72
1
41
1.0
100
AcDbAlignedDimension
13
-67.517211
23
0.000000
33
0.0
14
0.000000
24
0.000000
34
0.0
50
0.000000
100
AcDbRotatedDimension
0
DIMENSION
5
83
100
AcDbEntity
62
256
370
-1
6
ByLayer
1
total_maxx
3
Standard
70
0
71
5
72
1
41
1.0
100
AcDbAlignedDimension
13
0.000000
23
0.000000
33
0.0
14
139.292753
24
0.000000
34
0.0
50
0.000000
100
AcDbRotatedDimension
0
DIMENSION
5
83
100
AcDbEntity
62
256
370
-1
6
ByLayer
1
total_height
3
Standard
70
0
71
5
72
1
41
1.0
100
AcDbAlignedDimension
13
0.000000
23
31.112954
33
0.0
14
0.000000
24
155.564769
34
0.0
50
90.000000
100
AcDbRotatedDimension
0
DIMENSION
5
83
100
AcDbEntity
62
256
370
-1
6
ByLayer
1
total_miny
3
Standard
70
0
71
5
72
1
41
1.0
100
AcDbAlignedDimension
13
31.112954
23
0.000000
33
0.0
14
0.000000
24
0.000000
34
0.0
50
0.000000
100
AcDbRotatedDimension
0
DIMENSION
5
83
100
AcDbEntity
62
256
370
-1
6
ByLayer
1
total_maxy
3
Standard
70
0
71
5
72
1
41
1.0
100
AcDbAlignedDimension
13
0.000000
23
0.000000
33
0.0
14
155.564769
24
0.000000
34
0.0
50
0.000000
100
AcDbRotatedDimension
0
DIMENSION
8
Layer_1
5
83
100
AcDbEntity
62
256
370
-1
6
ByLayer
1
Layer_1_width
3
Standard
70
0
71
5
72
1
41
1.0
100
AcDbAlignedDimension
13
-67.517211
23
0.000000
33
0.0
14
139.292753
24
0.000000
34
0.0
50
0.000000
100
AcDbRotatedDimension
0
DIMENSION
8
Layer_1
5
83
100
AcDbEntity
62
256
370
-1
6
ByLayer
1
Layer_1_minx
3
Standard
70
0
71
5
72
1
41
1.0
100
AcDbAlignedDimension
13
-67.517211
23
0.000000
33
0.0
14
0.000000
24
0.000000
34
0.0
50
0.000000
100
AcDbRotatedDimension
0
DIMENSION
8
Layer_1
5
83
100
AcDbEntity
62
256
370
-1
6
ByLayer
1
Layer_1_maxx
3
Standard
70
0
71
5
72
1
41
1.0
100
AcDbAlignedDimension
13
0.000000
23
0.000000
33
0.0
14
139.292753
24
0.000000
34
0.0
50
0.000000
100
AcDbRotatedDimension
0
DIMENSION
8
Layer_1
5
83
100
AcDbEntity
62
256
370
-1
6
ByLayer
1
Layer_1_height
3
Standard
70
0
71
5
72
1
41
1.0
100
AcDbAlignedDimension
13
0.000000
23
31.112954
33
0.0
14
0.000000
24
155.564769
34
0.0
50
90.000000
100
AcDbRotatedDimension
0
DIMENSION
8
Layer_1
5
83
100
AcDbEntity
62
256
370
-1
6
ByLayer
1
Layer_1_miny
3
Standard
70
0
71
5
72
1
41
1.0
100
AcDbAlignedDimension
13
31.112954
23
0.000000
33
0.0
14
0.000000
24
0.000000
34
0.0
50
0.000000
100
AcDbRotatedDimension
0
DIMENSION
8
Layer_1
5
83
100
AcDbEntity
62
256
370
-1
6
ByLayer
1
Layer_1_maxy
3
Standard
70
0
71
5
72
1
41
1.0
100
AcDbAlignedDimension
13
0.000000
23
0.000000
33
0.0
14
155.564769
24
0.000000
34
0.0
50
0.000000
100
AcDbRotatedDimension
62
0
0
LWPOLYLINE
100
AcDbPolyline
8
Layer_1
90
6
70
0
10
0.000000
20
31.112954
30
0.0
10
139.292753
20
31.112954
30
0.0
10
139.292753
20
155.564769
30
0.0
10
0.000000
20
155.564769
30
0.0
10
0.000000
20
31.112954
30
0.0
10
0.000000
20
31.112954
30
0.0
62
0
0
LWPOLYLINE
100
AcDbPolyline
8
Layer_1
90
148
70
0
10
0.000000
20
155.564769
30
0.0
10
-2.059176
20
155.381635
30
0.0
10
-4.017777
20
155.007217
30
0.0
10
-5.873284
20
154.436340
30
0.0
10
-7.623175
20
153.663826
30
0.0
10
-9.264931
20
152.684501
30
0.0
10
-10.796032
20
151.493189
30
0.0
10
-12.213957
20
150.084713
30
0.0
10
-13.516187
20
148.453898
30
0.0
10
-14.670334
20
146.810307
30
0.0
10
-15.948942
20
145.285672
30
0.0
10
-17.471443
20
143.954535
30
0.0
10
-19.060835
20
142.892851
30
0.0
10
-20.715267
20
142.098607
30
0.0
10
-22.432892
20
141.569793
30
0.0
10
-24.211860
20
141.304398
30
0.0
10
-26.050324
20
141.300412
30
0.0
10
-27.946433
20
141.555823
30
0.0
10
-29.898340
20
142.068621
30
0.0
10
-31.243266
20
142.594908
30
0.0
10
-32.500746
20
143.277696
30
0.0
10
-33.657103
20
144.117170
30
0.0
10
-34.698658
20
145.113516
30
0.0
10
-36.117071
20
146.863999
30
0.0
10
-37.448067
20
148.691529
30
0.0
10
-38.598762
20
150.098240
30
0.0
10
-39.874155
20
151.361069
30
0.0
10
-41.280093
20
152.477638
30
0.0
10
-42.822424
20
153.445563
30
0.0
10
-44.304748
20
154.179283
30
0.0
10
-45.833136
20
154.760048
30
0.0
10
-47.409942
20
155.181692
30
0.0
10
-49.037522
20
155.438052
30
0.0
10
-51.685728
20
155.521038
30
0.0
10
-54.252707
20
155.204901
30
0.0
10
-56.736500
20
154.478289
30
0.0
10
-59.135151
20
153.329852
30
0.0
10
-61.061776
20
152.057241
30
0.0
10
-62.786260
20
150.531054
30
0.0
10
-64.501634
20
148.444074
30
0.0
10
-65.842096
20
146.161041
30
0.0
10
-66.797967
20
143.729346
30
0.0
10
-67.359565
20
141.196377
30
0.0
10
-67.517211
20
138.609527
30
0.0
10
-67.261224
20
136.016184
30
0.0
10
-66.581923
20
133.463739
30
0.0
10
-65.469629
20
130.999583
30
0.0
10
-64.283103
20
129.112589
30
0.0
10
-62.942845
20
127.454656
30
0.0
10
-61.451066
20
126.026109
30
0.0
10
-59.809980
20
124.827277
30
0.0
10
-58.021798
20
123.858487
30
0.0
10
-56.088734
20
123.120066
30
0.0
10
-54.013000
20
122.612342
30
0.0
10
-51.796809
20
122.335643
30
0.0
10
-48.542434
20
121.885251
30
0.0
10
-46.980255
20
121.426204
30
0.0
10
-45.470516
20
120.747578
30
0.0
10
-43.885295
20
119.756215
30
0.0
10
-42.472504
20
118.586074
30
0.0
10
-41.245186
20
117.227813
30
0.0
10
-40.216384
20
115.672094
30
0.0
10
-39.427324
20
114.057230
30
0.0
10
-38.859178
20
112.437144
30
0.0
10
-38.510794
20
110.812434
30
0.0
10
-38.381023
20
109.183699
30
0.0
10
-38.468712
20
107.551538
30
0.0
10
-38.772712
20
105.916549
30
0.0
10
-39.291871
20
104.279331
30
0.0
10
-40.025038
20
102.640483
30
0.0
10
-40.841584
20
100.837137
30
0.0
10
-41.446926
20
99.026076
30
0.0
10
-41.840046
20
97.207309
30
0.0
10
-42.019926
20
95.380845
30
0.0
10
-41.985545
20
93.546696
30
0.0
10
-41.735887
20
91.704870
30
0.0
10
-41.269931
20
89.855378
30
0.0
10
-40.586660
20
87.998229
30
0.0
10
-39.922596
20
86.630378
30
0.0
10
-39.130923
20
85.347034
30
0.0
10
-38.212197
20
84.148780
30
0.0
10
-37.166973
20
83.036198
30
0.0
10
-35.313716
20
81.442405
30
0.0
10
-33.384203
20
80.161633
30
0.0
10
-31.379330
20
79.191760
30
0.0
10
-29.299994
20
78.530662
30
0.0
10
-27.147090
20
78.176216
30
0.0
10
-24.921514
20
78.126299
30
0.0
10
-22.624164
20
78.378788
30
0.0
10
-20.255936
20
78.931558
30
0.0
10
-18.759236
20
79.463891
30
0.0
10
-17.341039
20
80.156191
30
0.0
10
-16.002904
20
80.997610
30
0.0
10
-14.746393
20
81.977301
30
0.0
10
-13.422604
20
83.227325
30
0.0
10
-12.264447
20
84.558739
30
0.0
10
-11.272164
20
85.971307
30
0.0
10
-10.445997
20
87.464794
30
0.0
10
-9.786186
20
89.038966
30
0.0
10
-9.292974
20
90.693588
30
0.0
10
-8.966601
20
92.428425
30
0.0
10
-8.807309
20
94.243243
30
0.0
10
-8.884179
20
96.497166
30
0.0
10
-9.278761
20
98.674626
30
0.0
10
-9.955706
20
100.787632
30
0.0
10
-10.879667
20
102.848198
30
0.0
10
-11.570868
20
104.403604
30
0.0
10
-12.065930
20
105.963985
30
0.0
10
-12.362734
20
107.526720
30
0.0
10
-12.459159
20
109.089190
30
0.0
10
-12.353084
20
110.648776
30
0.0
10
-12.042391
20
112.202860
30
0.0
10
-11.524960
20
113.748820
30
0.0
10
-10.798669
20
115.284038
30
0.0
10
-9.848434
20
116.819555
30
0.0
10
-8.769765
20
118.169165
30
0.0
10
-7.564822
20
119.330928
30
0.0
10
-6.235771
20
120.302902
30
0.0
10
-4.784772
20
121.083146
30
0.0
10
-3.213991
20
121.669717
30
0.0
10
-1.525589
20
122.060676
30
0.0
10
0.278271
20
122.254081
30
0.0
10
3.027534
20
122.569473
30
0.0
10
5.634320
20
123.254911
30
0.0
10
8.088335
20
124.346009
30
0.0
10
10.379287
20
125.878378
30
0.0
10
11.708615
20
127.048266
30
0.0
10
12.881464
20
128.304863
30
0.0
10
13.897569
20
129.647093
30
0.0
10
14.756659
20
131.073878
30
0.0
10
15.458468
20
132.584138
30
0.0
10
16.002728
20
134.176796
30
0.0
10
16.389170
20
135.850774
30
0.0
10
16.617527
20
137.604994
30
0.0
10
16.646207
20
139.515956
30
0.0
10
16.454120
20
141.421203
30
0.0
10
16.039324
20
143.175708
30
0.0
10
15.519118
20
144.914549
30
0.0
10
14.785305
20
146.664751
30
0.0
10
13.787120
20
148.273558
30
0.0
10
12.338500
20
150.151880
30
0.0
10
10.658475
20
151.756463
30
0.0
10
8.759269
20
153.097098
30
0.0
10
6.653107
20
154.183574
30
0.0
10
5.049242
20
154.789554
30
0.0
10
3.406246
20
155.222893
30
0.0
10
1.723403
20
155.481871
30
0.0
10
0.000000
20
155.564769
30
0.0
  0
ENDSEC
  0
SECTION
  2
OBJECTS
  0
DICTIONARY
  5
C
330
0
100
AcDbDictionary
  3
ACAD_GROUP
350
D
  3
ACAD_MLINESTYLE
350
17
  0
DICTIONARY
  5
D
330
C
100
AcDbDictionary
  0
DICTIONARY
  5
1A
330
C
100
AcDbDictionary
  0
DICTIONARY
  5
17
330
C
100
AcDbDictionary
  3
STANDARD
350
18
  0
DICTIONARY
  5
19
330
C
100
AcDbDictionary
  0
ENDSEC
  0
EOF
