999
Inkscape export via OpenSCAD DXF Export
  0
SECTION
  2
HEADER
  9
$ACADVER
  1
AC1014
  9
$HANDSEED
  5
FFFF
  9
$MEASUREMENT
 70
     1
  0
ENDSEC
  0
SECTION
  2
TABLES
  0
TABLE
  2
VPORT
  5
8
330
0
100
AcDbSymbolTable
 70
     4
  0
VPORT
  5
2E
330
8
100
AcDbSymbolTableRecord
100
AcDbViewportTableRecord
  2
*ACTIVE
 70
     0
 10
0.0
 20
0.0
 11
1.0
 21
1.0
 12
210.0
 22
148.5
 13
0.0
 23
0.0
 14
10.0
 24
10.0
 15
10.0
 25
10.0
 16
0.0
 26
0.0
 36
1.0
 17
0.0
 27
0.0
 37
0.0
 40
341.0
 41
1.24
 42
50.0
 43
0.0
 44
0.0
 50
0.0
 51
0.0
 71
     0
 72
   100
 73
     1
 74
     3
 75
     0
 76
     0
 77
     0
 78
     0
  0
ENDTAB
  0
TABLE
  2
LTYPE
  5
5
330
0
100
AcDbSymbolTable
 70
     1
  0
LTYPE
  5
14
330
5
100
AcDbSymbolTableRecord
100
AcDbLinetypeTableRecord
  2
BYBLOCK
 70
     0
  3

 72
    65
 73
     0
 40
0.0
  0
LTYPE
  5
15
330
5
100
AcDbSymbolTableRecord
100
AcDbLinetypeTableRecord
  2
BYLAYER
 70
     0
  3

 72
    65
 73
     0
 40
0.0
  0
LTYPE
  5
16
330
5
100
AcDbSymbolTableRecord
100
AcDbLinetypeTableRecord
  2
CONTINUOUS
 70
     0
  3
Solid line
 72
    65
 73
     0
 40
0.0
  0
ENDTAB
  0
TABLE
0
TABLE
2
LAYER
5
2
330
0
100
AcDbSymbolTable
70
1
0
LAYER
5
10
330
2
100
AcDbSymbolTableRecord
100
AcDbLayerTableRecord
2
Layer_1
70
0
62
7
6
CONTINUOUS
0
ENDTAB
0
ENDSEC
  0
ENDTAB
  0
TABLE
  2
STYLE
  5
3
330
0
100
AcDbSymbolTable
 70
     1
  0
STYLE
  5
11
330
3
100
AcDbSymbolTableRecord
100
AcDbTextStyleTableRecord
  2
STANDARD
 70
     0
 40
0.0
 41
1.0
 50
0.0
 71
     0
 42
2.5
  3
txt
  4

  0
ENDTAB
  0
TABLE
  2
VIEW
  5
6
330
0
100
AcDbSymbolTable
 70
     0
  0
ENDTAB
  0
TABLE
  2
UCS
  5
7
330
0
100
AcDbSymbolTable
 70
     0
  0
ENDTAB
  0
TABLE
  2
APPID
  5
9
330
0
100
AcDbSymbolTable
 70
     2
  0
APPID
  5
12
330
9
100
AcDbSymbolTableRecord
100
AcDbRegAppTableRecord
  2
ACAD
 70
     0
  0
ENDTAB
  0
TABLE
  2
DIMSTYLE
  5
A
330
0
100
AcDbSymbolTable
 70
     1
  0
DIMSTYLE
105
27
330
A
100
AcDbSymbolTableRecord
100
AcDbDimStyleTableRecord
  2
ISO-25
 70
     0
  3

  4

  5

  6

  7

 40
1.0
 41
2.5
 42
0.625
 43
3.75
 44
1.25
 45
0.0
 46
0.0
 47
0.0
 48
0.0
140
2.5
141
2.5
142
0.0
143
0.03937007874016
144
1.0
145
0.0
146
1.0
147
0.625
 71
     0
 72
     0
 73
     0
 74
     0
 75
     0
 76
     0
 77
     1
 78
     8
170
     0
171
     3
172
     1
173
     0
174
     0
175
     0
176
     0
177
     0
178
     0
270
     2
271
     2
272
     2
273
     2
274
     3
340
11
275
     0
280
     0
281
     0
282
     0
283
     0
284
     8
285
     0
286
     0
287
     3
288
     0
  0
ENDTAB
  0
TABLE
  2
BLOCK_RECORD
  5
1
330
0
100
AcDbSymbolTable
 70
     1
  0
BLOCK_RECORD
  5
1F
330
1
100
AcDbSymbolTableRecord
100
AcDbBlockTableRecord
  2
*MODEL_SPACE
  0
BLOCK_RECORD
  5
1B
330
1
100
AcDbSymbolTableRecord
100
AcDbBlockTableRecord
  2
*PAPER_SPACE
  0
ENDTAB
  0
ENDSEC
  0
SECTION
  2
BLOCKS
  0
BLOCK
  5
20
330
1F
100
AcDbEntity
  8
0
100
AcDbBlockBegin
  2
*MODEL_SPACE
 70
     0
 10
0.0
 20
0.0
 30
0.0
  3
*MODEL_SPACE
  1

  0
ENDBLK
  5
21
330
1F
100
AcDbEntity
  8
0
100
AcDbBlockEnd
  0
BLOCK
  5
1C
330
1B
100
AcDbEntity
 67
     1
  8
0
100
AcDbBlockBegin
  2
*PAPER_SPACE
  1

  0
ENDBLK
  5
1D
330
1B
100
AcDbEntity
 67
     1
  8
0
100
AcDbBlockEnd
  0
ENDSEC
  0
SECTION
  2
ENTITIES
0
DIMENSION
5
83
100
AcDbEntity
62
256
370
-1
6
ByLayer
1
total_width
3
Standard
70
0
71
5
72
1
41
1.0
100
AcDbAlignedDimension
13
29.125037
23
0.000000
33
0.0
14
334.242226
24
0.000000
34
0.0
50
0.000000
100
AcDbRotatedDimension
0
DIMENSION
5
83
100
AcDbEntity
62
256
370
-1
6
ByLayer
1
total_minx
3
Standard
70
0
71
5
72
1
41
1.0
100
AcDbAlignedDimension
13
29.125037
23
0.000000
33
0.0
14
0.000000
24
0.000000
34
0.0
50
0.000000
100
AcDbRotatedDimension
0
DIMENSION
5
83
100
AcDbEntity
62
256
370
-1
6
ByLayer
1
total_maxx
3
Standard
70
0
71
5
72
1
41
1.0
100
AcDbAlignedDimension
13
0.000000
23
0.000000
33
0.0
14
334.242226
24
0.000000
34
0.0
50
0.000000
100
AcDbRotatedDimension
0
DIMENSION
5
83
100
AcDbEntity
62
256
370
-1
6
ByLayer
1
total_height
3
Standard
70
0
71
5
72
1
41
1.0
100
AcDbAlignedDimension
13
0.000000
23
37.141893
33
0.0
14
0.000000
24
317.790853
34
0.0
50
90.000000
100
AcDbRotatedDimension
0
DIMENSION
5
83
100
AcDbEntity
62
256
370
-1
6
ByLayer
1
total_miny
3
Standard
70
0
71
5
72
1
41
1.0
100
AcDbAlignedDimension
13
37.141893
23
0.000000
33
0.0
14
0.000000
24
0.000000
34
0.0
50
0.000000
100
AcDbRotatedDimension
0
DIMENSION
5
83
100
AcDbEntity
62
256
370
-1
6
ByLayer
1
total_maxy
3
Standard
70
0
71
5
72
1
41
1.0
100
AcDbAlignedDimension
13
0.000000
23
0.000000
33
0.0
14
317.790853
24
0.000000
34
0.0
50
0.000000
100
AcDbRotatedDimension
0
DIMENSION
8
Layer_1
5
83
100
AcDbEntity
62
256
370
-1
6
ByLayer
1
Layer_1_width
3
Standard
70
0
71
5
72
1
41
1.0
100
AcDbAlignedDimension
13
29.125037
23
0.000000
33
0.0
14
334.242226
24
0.000000
34
0.0
50
0.000000
100
AcDbRotatedDimension
0
DIMENSION
8
Layer_1
5
83
100
AcDbEntity
62
256
370
-1
6
ByLayer
1
Layer_1_minx
3
Standard
70
0
71
5
72
1
41
1.0
100
AcDbAlignedDimension
13
29.125037
23
0.000000
33
0.0
14
0.000000
24
0.000000
34
0.0
50
0.000000
100
AcDbRotatedDimension
0
DIMENSION
8
Layer_1
5
83
100
AcDbEntity
62
256
370
-1
6
ByLayer
1
Layer_1_maxx
3
Standard
70
0
71
5
72
1
41
1.0
100
AcDbAlignedDimension
13
0.000000
23
0.000000
33
0.0
14
334.242226
24
0.000000
34
0.0
50
0.000000
100
AcDbRotatedDimension
0
DIMENSION
8
Layer_1
5
83
100
AcDbEntity
62
256
370
-1
6
ByLayer
1
Layer_1_height
3
Standard
70
0
71
5
72
1
41
1.0
100
AcDbAlignedDimension
13
0.000000
23
37.141893
33
0.0
14
0.000000
24
317.790853
34
0.0
50
90.000000
100
AcDbRotatedDimension
0
DIMENSION
8
Layer_1
5
83
100
AcDbEntity
62
256
370
-1
6
ByLayer
1
Layer_1_miny
3
Standard
70
0
71
5
72
1
41
1.0
100
AcDbAlignedDimension
13
37.141893
23
0.000000
33
0.0
14
0.000000
24
0.000000
34
0.0
50
0.000000
100
AcDbRotatedDimension
0
DIMENSION
8
Layer_1
5
83
100
AcDbEntity
62
256
370
-1
6
ByLayer
1
Layer_1_maxy
3
Standard
70
0
71
5
72
1
41
1.0
100
AcDbAlignedDimension
13
0.000000
23
0.000000
33
0.0
14
317.790853
24
0.000000
34
0.0
50
0.000000
100
AcDbRotatedDimension
62
0
0
LWPOLYLINE
100
AcDbPolyline
8
Layer_1
90
369
70
0
10
85.019459
20
37.255760
30
0.0
10
80.271646
20
37.759505
30
0.0
10
75.520008
20
38.684465
30
0.0
10
70.806879
20
40.013054
30
0.0
10
66.174595
20
41.727684
30
0.0
10
61.665492
20
43.810768
30
0.0
10
57.321906
20
46.244717
30
0.0
10
53.186171
20
49.011945
30
0.0
10
49.300624
20
52.094864
30
0.0
10
45.042113
20
56.231568
30
0.0
10
43.362917
20
58.101849
30
0.0
10
42.686125
20
59.096600
30
0.0
10
42.478868
20
59.443758
30
0.0
10
41.980570
20
59.845504
30
0.0
10
41.482271
20
60.290467
30
0.0
10
41.275014
20
60.741504
30
0.0
10
41.119566
20
61.122768
30
0.0
10
40.745847
20
61.399956
30
0.0
10
40.372118
20
61.632331
30
0.0
10
40.216681
20
61.905896
30
0.0
10
38.245782
20
65.232393
30
0.0
10
35.616259
20
69.772401
30
0.0
10
33.323040
20
74.785217
30
0.0
10
31.403248
20
80.179155
30
0.0
10
29.894008
20
85.862530
30
0.0
10
29.508148
20
87.882801
30
0.0
10
29.277769
20
90.050948
30
0.0
10
29.125037
20
97.158085
30
0.0
10
29.245613
20
104.403656
30
0.0
10
29.490372
20
106.643613
30
0.0
10
29.923359
20
108.922501
30
0.0
10
31.251397
20
114.011751
30
0.0
10
33.018257
20
119.140921
30
0.0
10
35.065502
20
123.899277
30
0.0
10
37.234693
20
127.876083
30
0.0
10
37.754310
20
128.862539
30
0.0
10
37.844772
20
129.398494
30
0.0
10
37.813721
20
129.550441
30
0.0
10
38.041199
20
129.613640
30
0.0
10
38.331884
20
129.716481
30
0.0
10
38.452792
20
129.963734
30
0.0
10
39.145281
20
131.110262
30
0.0
10
39.827327
20
132.203407
30
0.0
10
40.305976
20
132.908963
30
0.0
10
43.063513
20
136.126824
30
0.0
10
46.654198
20
140.265381
30
0.0
10
47.928795
20
141.507371
30
0.0
10
48.630120
20
141.960862
30
0.0
10
49.186853
20
142.327168
30
0.0
10
50.057911
20
143.207861
30
0.0
10
50.831168
20
144.026194
30
0.0
10
51.152792
20
144.242576
30
0.0
10
51.593210
20
144.450339
30
0.0
10
52.652097
20
145.247953
30
0.0
10
56.353908
20
147.883441
30
0.0
10
60.806655
20
150.454492
30
0.0
10
65.656255
20
152.774920
30
0.0
10
70.548627
20
154.658540
30
0.0
10
74.403675
20
155.791624
30
0.0
10
78.426056
20
156.669745
30
0.0
10
82.612500
20
157.292302
30
0.0
10
86.959736
20
157.658697
30
0.0
10
92.599743
20
158.161483
30
0.0
10
97.625623
20
159.060062
30
0.0
10
102.289728
20
160.413073
30
0.0
10
106.844409
20
162.279152
30
0.0
10
109.749078
20
163.791624
30
0.0
10
112.755599
20
165.580215
30
0.0
10
115.111398
20
167.170692
30
0.0
10
115.810098
20
167.743439
30
0.0
10
116.063903
20
168.088821
30
0.0
10
116.162981
20
168.322147
30
0.0
10
116.401187
20
168.419196
30
0.0
10
117.612296
20
169.385323
30
0.0
10
119.999308
20
171.674482
30
0.0
10
122.640871
20
174.372839
30
0.0
10
124.615631
20
176.566559
30
0.0
10
125.479563
20
177.778194
30
0.0
10
125.703372
20
178.417691
30
0.0
10
125.652583
20
178.581583
30
0.0
10
125.856365
20
178.649751
30
0.0
10
126.189774
20
178.906389
30
0.0
10
126.716224
20
179.613294
30
0.0
10
128.140083
20
181.999847
30
0.0
10
129.711605
20
185.053301
30
0.0
10
131.014456
20
188.017545
30
0.0
10
132.652823
20
192.996818
30
0.0
10
133.743527
20
198.040705
30
0.0
10
134.292084
20
203.183494
30
0.0
10
134.304010
20
208.459474
30
0.0
10
133.811662
20
213.722206
30
0.0
10
133.373638
20
216.195956
30
0.0
10
132.788600
20
218.634909
30
0.0
10
131.120140
20
223.619270
30
0.0
10
128.691598
20
229.096974
30
0.0
10
125.447236
20
236.337210
30
0.0
10
124.246785
20
239.564414
30
0.0
10
123.294447
20
242.649929
30
0.0
10
122.565443
20
245.683946
30
0.0
10
122.034992
20
248.756656
30
0.0
10
121.678315
20
251.958250
30
0.0
10
121.470632
20
255.378918
30
0.0
10
121.426557
20
259.270126
30
0.0
10
121.611670
20
263.051182
30
0.0
10
122.030740
20
266.744142
30
0.0
10
122.688537
20
270.371062
30
0.0
10
123.589831
20
273.953999
30
0.0
10
124.739393
20
277.515009
30
0.0
10
126.141993
20
281.076149
30
0.0
10
127.802400
20
284.659474
30
0.0
10
130.242550
20
289.157390
30
0.0
10
130.673154
20
289.842551
30
0.0
10
130.745047
20
290.127529
30
0.0
10
130.867573
20
290.399637
30
0.0
10
131.419953
20
291.053856
30
0.0
10
131.970283
20
291.798665
30
0.0
10
132.087860
20
292.288578
30
0.0
10
132.045421
20
292.506382
30
0.0
10
132.211050
20
292.596974
30
0.0
10
132.779184
20
293.079493
30
0.0
10
133.704485
20
294.239594
30
0.0
10
135.529913
20
296.434024
30
0.0
10
138.262205
20
299.403330
30
0.0
10
141.602043
20
302.650544
30
0.0
10
145.095722
20
305.586501
30
0.0
10
148.754157
20
308.217275
30
0.0
10
152.588263
20
310.548937
30
0.0
10
156.608957
20
312.587561
30
0.0
10
160.827152
20
314.339219
30
0.0
10
165.253765
20
315.809985
30
0.0
10
169.899711
20
317.005930
30
0.0
10
172.001326
20
317.413151
30
0.0
10
174.193863
20
317.649809
30
0.0
10
181.504181
20
317.790853
30
0.0
10
188.845843
20
317.661267
30
0.0
10
191.064443
20
317.423398
30
0.0
10
193.233675
20
317.008897
30
0.0
10
196.594834
20
316.185363
30
0.0
10
199.869338
20
315.201258
30
0.0
10
203.053445
20
314.058277
30
0.0
10
206.143416
20
312.758114
30
0.0
10
209.135509
20
311.302465
30
0.0
10
212.025984
20
309.693023
30
0.0
10
214.811101
20
307.931483
30
0.0
10
217.487119
20
306.019541
30
0.0
10
219.780175
20
304.401195
30
0.0
10
221.368070
20
302.990083
30
0.0
10
224.276708
20
300.358085
30
0.0
10
225.334759
20
299.382434
30
0.0
10
225.775675
20
298.770585
30
0.0
10
226.079226
20
298.210550
30
0.0
10
226.808016
20
297.359474
30
0.0
10
228.974632
20
295.029519
30
0.0
10
229.369229
20
294.473275
30
0.0
10
229.394046
20
294.214158
30
0.0
10
229.430499
20
294.015008
30
0.0
10
229.784219
20
293.802257
30
0.0
10
230.193621
20
293.497553
30
0.0
10
230.363903
20
293.077327
30
0.0
10
230.519340
20
292.662789
30
0.0
10
230.893070
20
292.371772
30
0.0
10
231.266788
20
292.084002
30
0.0
10
231.422236
20
291.677285
30
0.0
10
231.525865
20
291.330219
30
0.0
10
231.775014
20
291.185862
30
0.0
10
232.024163
20
291.037822
30
0.0
10
232.127792
20
290.681895
30
0.0
10
232.261251
20
290.189028
30
0.0
10
232.582141
20
289.711757
30
0.0
10
235.189226
20
284.989253
30
0.0
10
237.625061
20
279.532399
30
0.0
10
239.500596
20
273.924229
30
0.0
10
240.812674
20
268.204562
30
0.0
10
241.558135
20
262.413221
30
0.0
10
241.733821
20
256.590026
30
0.0
10
241.336573
20
250.774798
30
0.0
10
240.363234
20
245.007359
30
0.0
10
238.810645
20
239.327529
30
0.0
10
237.171054
20
235.147112
30
0.0
10
234.771875
20
229.802529
30
0.0
10
231.861712
20
223.178996
30
0.0
10
230.827764
20
220.293030
30
0.0
10
230.040272
20
217.553226
30
0.0
10
229.473508
20
214.856303
30
0.0
10
229.101746
20
212.098982
30
0.0
10
228.899261
20
209.177984
30
0.0
10
228.840326
20
205.990029
30
0.0
10
228.972714
20
201.671351
30
0.0
10
229.389545
20
197.826242
30
0.0
10
230.138100
20
194.149559
30
0.0
10
231.265659
20
190.336159
30
0.0
10
232.326223
20
187.526029
30
0.0
10
233.620409
20
184.579301
30
0.0
10
234.870610
20
182.089164
30
0.0
10
235.799221
20
180.648805
30
0.0
10
236.891139
20
178.871124
30
0.0
10
237.570176
20
177.790434
30
0.0
10
238.213209
20
177.110571
30
0.0
10
238.649217
20
176.705138
30
0.0
10
238.830570
20
176.284249
30
0.0
10
239.037827
20
175.868302
30
0.0
10
239.536125
20
175.474751
30
0.0
10
240.034424
20
175.092214
30
0.0
10
240.241681
20
174.702744
30
0.0
10
241.032485
20
173.603252
30
0.0
10
242.797926
20
171.739261
30
0.0
10
244.627550
20
170.018593
30
0.0
10
245.610902
20
169.349073
30
0.0
10
245.872363
20
169.305683
30
0.0
10
246.107557
20
168.958181
30
0.0
10
246.909164
20
168.110604
30
0.0
10
248.481748
20
166.863618
30
0.0
10
250.123944
20
165.735417
30
0.0
10
251.134386
20
165.244196
30
0.0
10
251.414192
20
165.164487
30
0.0
10
251.530570
20
164.972848
30
0.0
10
252.163106
20
164.407510
30
0.0
10
253.812202
20
163.465648
30
0.0
10
258.669014
20
161.233440
30
0.0
10
262.418733
20
159.898765
30
0.0
10
266.293110
20
158.907505
30
0.0
10
270.623845
20
158.190603
30
0.0
10
275.742640
20
157.679006
30
0.0
10
281.015584
20
157.175951
30
0.0
10
285.444052
20
156.515873
30
0.0
10
289.388768
20
155.632269
30
0.0
10
293.210460
20
154.458636
30
0.0
10
298.306310
20
152.417872
30
0.0
10
303.351653
20
149.882276
30
0.0
10
308.004043
20
147.041690
30
0.0
10
311.921031
20
144.085956
30
0.0
10
313.702164
20
142.666418
30
0.0
10
316.832079
20
139.718556
30
0.0
10
319.699019
20
136.601287
30
0.0
10
319.881596
20
136.237278
30
0.0
10
320.417190
20
135.705161
30
0.0
10
321.556944
20
134.491809
30
0.0
10
326.570396
20
126.967807
30
0.0
10
328.488689
20
123.086024
30
0.0
10
330.519492
20
118.196714
30
0.0
10
332.114656
20
113.256313
30
0.0
10
333.291190
20
108.203474
30
0.0
10
334.066106
20
102.976852
30
0.0
10
334.242226
20
98.855673
30
0.0
10
334.110937
20
93.907747
30
0.0
10
333.744359
20
89.489788
30
0.0
10
333.495375
20
87.903520
30
0.0
10
333.214613
20
86.958511
30
0.0
10
332.588482
20
84.936446
30
0.0
10
331.791282
20
81.444397
30
0.0
10
331.047376
20
78.124541
30
0.0
10
330.549363
20
76.516456
30
0.0
10
329.696092
20
74.091207
30
0.0
10
329.022971
20
72.300553
30
0.0
10
328.134416
20
70.880422
30
0.0
10
327.234839
20
69.535439
30
0.0
10
326.520302
20
67.951209
30
0.0
10
325.905745
20
66.528329
30
0.0
10
325.246548
20
65.571285
30
0.0
10
324.555556
20
64.663518
30
0.0
10
324.126022
20
63.714470
30
0.0
10
323.004053
20
62.112846
30
0.0
10
321.439595
20
60.186859
30
0.0
10
319.682594
20
58.264721
30
0.0
10
319.078420
20
57.579722
30
0.0
10
318.956888
20
57.294582
30
0.0
10
318.351570
20
56.517092
30
0.0
10
316.584245
20
54.648354
30
0.0
10
313.728636
20
52.002521
30
0.0
10
312.749918
20
51.321942
30
0.0
10
310.700558
20
49.433670
30
0.0
10
309.819068
20
48.770145
30
0.0
10
306.660098
20
46.804834
30
0.0
10
301.904272
20
44.041381
30
0.0
10
296.706375
20
41.636848
30
0.0
10
291.228209
20
39.657675
30
0.0
10
285.631580
20
38.170302
30
0.0
10
283.488508
20
37.763637
30
0.0
10
281.279769
20
37.525886
30
0.0
10
274.108347
20
37.382252
30
0.0
10
266.906357
20
37.512801
30
0.0
10
264.706891
20
37.753727
30
0.0
10
262.529419
20
38.174083
30
0.0
10
258.943539
20
39.070161
30
0.0
10
255.407114
20
40.169648
30
0.0
10
251.940962
20
41.462733
30
0.0
10
248.565903
20
42.939610
30
0.0
10
245.302754
20
44.590469
30
0.0
10
242.172335
20
46.405501
30
0.0
10
239.195464
20
48.374898
30
0.0
10
236.392960
20
50.488850
30
0.0
10
231.579850
20
54.776677
30
0.0
10
229.705434
20
56.663864
30
0.0
10
228.952792
20
57.642421
30
0.0
10
228.693715
20
58.053048
30
0.0
10
228.070847
20
58.561337
30
0.0
10
227.447489
20
59.087092
30
0.0
10
227.187266
20
59.539632
30
0.0
10
226.876042
20
60.153578
30
0.0
10
226.128933
20
61.067414
30
0.0
10
225.072236
20
62.365382
30
0.0
10
223.564933
20
64.812464
30
0.0
10
221.836079
20
67.113178
30
0.0
10
221.630113
20
67.343024
30
0.0
10
221.544459
20
67.730539
30
0.0
10
221.440830
20
68.083490
30
0.0
10
221.191681
20
68.230298
30
0.0
10
220.941205
20
68.359831
30
0.0
10
220.834387
20
68.671271
30
0.0
10
220.594361
20
69.250100
30
0.0
10
219.937979
20
70.186772
30
0.0
10
217.712600
20
72.770619
30
0.0
10
214.831161
20
75.696752
30
0.0
10
211.966570
20
78.239112
30
0.0
10
207.789814
20
81.250221
30
0.0
10
203.396430
20
83.750452
30
0.0
10
198.715227
20
85.775307
30
0.0
10
193.675014
20
87.360283
30
0.0
10
191.335775
20
87.926173
30
0.0
10
189.244115
20
88.273021
30
0.0
10
183.381523
20
88.601666
30
0.0
10
178.527377
20
88.610717
30
0.0
10
174.385524
20
88.299699
30
0.0
10
170.524071
20
87.614872
30
0.0
10
166.511125
20
86.502497
30
0.0
10
162.101138
20
84.810989
30
0.0
10
157.638694
20
82.597035
30
0.0
10
153.614188
20
80.131049
30
0.0
10
151.919410
20
78.888048
30
0.0
10
150.518015
20
77.683445
30
0.0
10
148.888267
20
76.344187
30
0.0
10
147.108347
20
74.756687
30
0.0
10
146.088767
20
73.635510
30
0.0
10
145.825281
20
73.169187
30
0.0
10
145.675297
20
72.816688
30
0.0
10
144.928604
20
71.969207
30
0.0
10
142.974014
20
69.871569
30
0.0
10
142.616454
20
69.349887
30
0.0
10
142.522236
20
68.994443
30
0.0
10
142.418608
20
68.703913
30
0.0
10
142.169459
20
68.583076
30
0.0
10
141.920309
20
68.427628
30
0.0
10
141.816681
20
68.053910
30
0.0
10
141.713052
20
67.680180
30
0.0
10
141.463903
20
67.524743
30
0.0
10
141.214754
20
67.377934
30
0.0
10
141.111125
20
67.024984
30
0.0
10
141.025513
20
66.637468
30
0.0
10
140.819674
20
66.407623
30
0.0
10
138.743648
20
63.644187
30
0.0
10
135.553997
20
59.262892
30
0.0
10
131.660575
20
55.055714
30
0.0
10
129.301982
20
52.784249
30
0.0
10
126.845645
20
50.658326
30
0.0
10
124.296610
20
48.679873
30
0.0
10
121.659923
20
46.850813
30
0.0
10
118.940630
20
45.173073
30
0.0
10
116.143775
20
43.648578
30
0.0
10
113.274406
20
42.279254
30
0.0
10
110.337568
20
41.067027
30
0.0
10
107.338307
20
40.013822
30
0.0
10
104.281667
20
39.121565
30
0.0
10
101.172696
20
38.392181
30
0.0
10
98.016438
20
37.827596
30
0.0
10
94.817940
20
37.429736
30
0.0
10
91.582246
20
37.200526
30
0.0
10
88.314404
20
37.141893
30
0.0
10
85.019459
20
37.255760
30
0.0
10
85.019459
20
37.255760
30
0.0
  0
ENDSEC
  0
SECTION
  2
OBJECTS
  0
DICTIONARY
  5
C
330
0
100
AcDbDictionary
  3
ACAD_GROUP
350
D
  3
ACAD_MLINESTYLE
350
17
  0
DICTIONARY
  5
D
330
C
100
AcDbDictionary
  0
DICTIONARY
  5
1A
330
C
100
AcDbDictionary
  0
DICTIONARY
  5
17
330
C
100
AcDbDictionary
  3
STANDARD
350
18
  0
DICTIONARY
  5
19
330
C
100
AcDbDictionary
  0
ENDSEC
  0
EOF
